Coordinates
version=1
nRows=14
nColumns=24
inDegrees=yes

Units are S.I. units (second, meters, Newtons, ...)
Angles are in degrees.

endheader
time	pelvis_tilt	pelvis_list	pelvis_rotation	pelvis_tx	pelvis_ty	pelvis_tz	hip_flexion_r	hip_adduction_r	hip_rotation_r	knee_angle_r	ankle_angle_r	subtalar_angle_r	mtp_angle_r	hip_flexion_l	hip_adduction_l	hip_rotation_l	knee_angle_l	ankle_angle_l	subtalar_angle_l	mtp_angle_l	lumbar_extension	lumbar_bending	lumbar_rotation
      0.25400000	     -6.60719589	      4.67879439	     -2.16513873	     -0.79283496	      1.02981341	      0.30919892	     34.42741397	     -2.30749230	     -0.58261382	     -6.34989161	      9.77318057	     -0.85169417	      8.41973866	    -11.01779636	      5.85101802	     -0.80587190	     -5.98475140	     17.67491001	      8.09951776	      3.91590031	     -9.92151352	     -2.98596848	     -3.92495584
      0.25816667	     -6.59897526	      4.66080082	     -2.11751011	     -0.78671877	      1.02892093	      0.30944273	     34.47284606	     -2.24883159	     -0.33970364	     -6.82731550	      9.66638864	     -1.16885911	      8.41717279	    -11.13513960	      5.79506205	     -0.85286601	     -6.52373938	     17.80728836	      8.33820845	      3.96314243	     -9.90779393	     -2.85661222	     -3.94658504
      0.26233333	     -6.57446699	      4.62738709	     -2.06690318	     -0.78054964	      1.02809242	      0.30968044	     34.48923946	     -2.17966442	     -0.12492946	     -7.34161289	      9.52755539	     -1.48722107	      8.41938254	    -11.25577125	      5.72029499	     -0.92191994	     -7.09657963	     17.94353256	      8.61294865	      4.04429058	     -9.90628841	     -2.70361599	     -3.94818643
      0.26650000	     -6.54878513	      4.59850462	     -1.99299405	     -0.77436597	      1.02731152	      0.30988062	     34.50063383	     -2.13062695	      0.03824406	     -7.90155660	      9.39336900	     -1.74978962	      8.42202173	    -11.36321103	      5.64984991	     -0.90326913	     -7.70513614	     18.06156465	      8.75858187	      4.10835375	     -9.90459638	     -2.55654682	     -3.94082083
      0.27066667	     -6.54581313	      4.53836470	     -1.95383871	     -0.76806857	      1.02652532	      0.31017016	     34.50729509	     -2.02414137	      0.28295499	     -8.44945412	      9.11543584	     -2.17462381	      8.43387580	    -11.43092357	      5.53876617	     -1.07099508	     -8.34560769	     18.13077898	      9.13948067	      4.26007237	     -9.87197372	     -2.35890327	     -3.95102080
      0.27483333	     -6.53383160	      4.47986704	     -1.89398243	     -0.76175858	      1.02580461	      0.31042592	     34.50146684	     -1.93536100	      0.45650456	     -9.03101875	      8.83056598	     -2.54459804	      8.45037604	    -11.48997572	      5.42811443	     -1.16450942	     -9.03153447	     18.20222830	      9.41497096	      4.43341967	     -9.83881065	     -2.16963264	     -3.93967763
      0.27900000	     -6.51189117	      4.41244152	     -1.83326127	     -0.75539895	      1.02514847	      0.31069038	     34.47047075	     -1.84003851	      0.61648363	     -9.61682576	      8.49921056	     -2.91910187	      8.47102457	    -11.54808099	      5.30663374	     -1.26139920	     -9.73512011	     18.23719330	      9.68269897	      4.63888551	     -9.81880065	     -1.96458683	     -3.92948114
      0.28316667	     -6.49076821	      4.33799123	     -1.77048294	     -0.74901150	      1.02453980	      0.31095767	     34.43098752	     -1.74089332	      0.75599602	    -10.21044739	      8.12372070	     -3.29430054	      8.49636485	    -11.58402998	      5.17345573	     -1.38074486	    -10.48767881	     18.23588656	      9.95250216	      4.88980428	     -9.79918409	     -1.74962477	     -3.91302970
      0.28733333	     -6.48201649	      4.25634119	     -1.70478477	     -0.74257984	      1.02396697	      0.31123068	     34.39671494	     -1.63759523	      0.86905038	    -10.81231936	      7.70298992	     -3.67086212	      8.52297237	    -11.58741945	      5.03013967	     -1.50540902	    -11.27926952	     18.20367550	     10.20726924	      5.17129270	     -9.75157047	     -1.52612450	     -3.89399695
      0.29150000	     -6.48250696	      4.17150997	     -1.63276512	     -0.73612299	      1.02344216	      0.31150196	     34.36504731	     -1.53699764	      0.95534192	    -11.41675997	      7.24344310	     -4.04041111	      8.54801997	    -11.55520027	      4.87979164	     -1.62562859	    -12.11778573	     18.14119271	     10.45187956	      5.48166866	     -9.69248491	     -1.29666115	     -3.86923160
      0.29566667	     -6.47408164	      4.09289947	     -1.56138433	     -0.72965589	      1.02296351	      0.31177873	     34.33799174	     -1.45090742	      0.96380460	    -12.06169921	      6.79950016	     -4.27124954	      8.82909864	    -11.50722285	      4.72746424	     -1.81107372	    -12.99814078	     17.99250749	     10.75959452	      8.32362654	     -9.65055481	     -1.08966533	     -3.80672683
      0.29983333	     -6.43811631	      3.98303709	     -1.48388131	     -0.72316081	      1.02263477	      0.31203614	     34.24766818	     -1.34033948	      1.00596874	    -12.65305509	      6.24086370	     -4.62973381	      8.81649360	    -11.49595762	      4.55526759	     -1.84830234	    -13.86612502	     17.81100647	     10.83355563	      8.38565293	     -9.64721678	     -0.80378571	     -3.78592872
      0.30400000	     -6.43419745	      3.87826150	     -1.42466923	     -0.71665383	      1.02227522	      0.31237729	     34.20198128	     -1.21955860	      1.05791513	    -13.27273680	      5.73213306	     -5.03527651	      8.80415552	    -11.38709056	      4.36744346	     -2.08494338	    -14.85982382	     17.63550276	     11.11967153	      8.53729612	     -9.58134953	     -0.56077362	     -3.74886038
      0.30816667	     -6.43141819	      3.76901662	     -1.35345796	     -0.71013500	      1.02199185	      0.31268564	     34.16005911	     -1.11067385	      1.04410879	    -13.90832929	      5.22051837	     -5.32902356	      8.78900648	    -11.25963308	      4.17440630	     -2.27057677	    -15.87955820	     17.40383303	     11.35871154	      8.74548828	     -9.52603692	     -0.30065478	     -3.69706551
